<svg width="106" height="106" viewBox="0 0 106 106" fill="none" xmlns="http://www.w3.org/2000/svg">
<mask id="mask0_1_556" style="mask-type:luminance" maskUnits="userSpaceOnUse" x="0" y="0" width="106" height="107">
<path d="M106 0H0V106.009H106V0Z" fill="white"/>
</mask>
<g mask="url(#mask0_1_556)">
<path d="M84.7006 43.6641L79.2021 82.6738L72.5912 85.4942L63.2025 89.4969L53.3038 93.7207L54.8936 50.5004L72.9719 46.3528L75.5445 45.763L76.2112 45.611L84.7006 43.6641Z" fill="#FF2D54"/>
<path d="M76.2189 45.6052L72.5942 85.4971L63.1949 89.5009L66.0985 47.9273L72.976 46.3472L75.5515 45.7573L76.2189 45.6052Z" fill="#64D1FF"/>
<path d="M25.7058 41.3952L28.3228 80.7195L34.7076 84.0439L43.7755 88.7622L53.3358 93.7406L54.9256 50.5203L37.2035 44.9845L34.6816 44.1972L34.0279 43.9939L25.7058 41.3952Z" fill="#FB5270"/>
<path d="M34.0243 43.9892L34.704 84.0478L43.7819 88.767L43.9451 47.0874L37.2034 44.9799L34.6786 44.1925L34.0243 43.9892Z" fill="#8BDBFB"/>
<path d="M85.3637 29.9391L56.0393 45.9836L44.7873 45.3976L33.5176 44.8115L23.2699 44.2793L52.5909 28.2356L61.0377 28.6743L70.9815 29.1898L85.3637 29.9391Z" fill="#FF4669"/>
<path d="M23.2905 44.302L26.4165 54.9477L58.4302 58.0764L56.0898 46.0043L23.2905 44.302Z" fill="#FF4A6B"/>
<path d="M85.3912 29.9886L86.4843 41.1048L58.3814 58.1485L56.041 46.0764L85.3912 29.9886Z" fill="#FF2D54"/>
<path d="M47.445 57.0089L36.2658 55.9151L33.5381 44.8225L44.8315 45.4078L47.445 57.0089Z" fill="#86DAFD"/>
<path d="M76.0678 35.0892L77.6937 46.441L67.877 52.3962L65.9642 40.6245L76.0678 35.0892Z" fill="#64D1FF"/>
<path d="M70.9834 29.1814L44.7868 45.395L33.5162 44.8093L61.0389 28.6662L70.9834 29.1814Z" fill="#7CD9FF"/>
<path d="M36.1308 37.2395L66.1053 40.4757L76.19 34.9561L45.0296 32.3709L36.1308 37.2395Z" fill="#78D6FB"/>
<path d="M71.7927 23.7442C71.667 22.5621 71.4269 21.3702 70.9861 20.2694C69.7965 17.3001 66.9408 15.8745 64.6108 14.5805C63.4567 13.9397 62.2274 13.2823 61.0074 13.4429C59.7954 13.6019 58.8042 14.5486 58 15.5912C55.0112 19.4664 53.8274 24.8784 52.7339 30.0837C52.4597 31.3897 52.1919 32.8101 52.6481 34.1063C53.3551 36.1149 55.5711 36.9002 57.2443 36.3234C58.9175 35.7466 60.1647 34.199 61.3382 32.7064C63.9671 29.363 66.596 26.0196 69.2249 22.6762" fill="#7ED9FD"/>
<path d="M58.9045 35.535C62.1184 33.2075 65.3319 30.8797 68.5458 28.5522C69.5355 27.8357 70.5515 27.0895 71.2032 25.9493C71.855 24.8091 72.0552 23.1624 71.3628 21.9382C70.628 20.6392 69.1184 20.2337 67.9139 20.6098C66.7091 20.986 65.7437 21.9717 64.8402 22.9577C61.2619 26.862 57.8716 31.5085 57.1113 37.3708" fill="#45C8FD"/>
<path d="M34.1759 40.758C33.5386 39.8133 32.977 38.7715 32.616 37.6361C31.6425 34.5733 32.8157 31.299 33.6923 28.5338C34.1266 27.1643 34.6051 25.7233 35.5796 24.875C36.5478 24.0317 37.8422 23.9262 39.0615 24.0368C43.5929 24.4482 47.774 27.384 51.7631 30.2432C52.7639 30.9607 53.8305 31.7651 54.3007 33.0523C55.0293 35.047 53.9214 37.3584 52.365 38.267C50.8085 39.1756 48.9603 39.0536 47.1989 38.9127L35.3621 37.9667" fill="#7ED9FD"/>
<path d="M50.6986 39.0144C46.9589 39.8858 43.2195 40.7567 39.4798 41.6281C38.3283 41.8966 37.1398 42.1647 35.9701 41.8639C34.8005 41.5631 33.6428 40.5443 33.3863 39.1235C33.114 37.6157 33.9484 36.1353 35.0444 35.4541C36.1408 34.7728 37.4406 34.7158 38.696 34.7078C43.6678 34.6759 48.9614 35.3225 53.1157 38.912" fill="#45C8FD"/>
<path d="M59.1381 32.4845C58.7309 36.3953 50.2709 39.1153 47.9599 36.5271C47.9588 36.1125 47.9433 33.6056 47.9422 33.6016C47.9355 32.292 49.0022 30.8887 50.1884 30.8765C51.7067 30.8626 53.356 30.3751 54.6214 29.4345C55.5498 28.7428 57.2035 29.0396 57.8014 30.2367L59.1381 32.4845Z" fill="#64D1FF"/>
<path d="M58.5649 36.617C59.0281 36.0997 59.34 35.3839 59.4667 34.6256C59.5681 34.0191 59.5672 33.303 59.2833 32.7374L58.9628 32.1976C59.0613 32.3624 58.988 32.7476 58.9451 32.912C58.8751 33.182 58.7426 33.4206 58.5932 33.6316C57.9817 34.4928 57.0606 35.0325 56.2064 35.4705C55.7085 35.7259 55.2839 36.0949 54.7731 36.3284C54.2055 36.5879 53.5996 36.7393 52.9835 36.7684C51.9136 36.819 50.8651 37.1195 49.7732 37.0434C49.3798 37.0161 48.9705 36.9569 48.5955 36.7759C48.4169 36.6897 47.9873 36.4399 47.9684 36.1525C47.9707 36.1874 47.9715 36.595 47.9715 36.595C48.078 38.0566 49.8864 39.4313 51.6372 39.3125C55.4839 39.0519 58.2963 36.9168 58.5649 36.617Z" fill="#64D1FF"/>
</g>
</svg>
